<svg width="48" height="48" viewBox="0 0 48 48" fill="none" xmlns="http://www.w3.org/2000/svg">
<g clip-path="url(#clip0_0_202)">
<path d="M19.4999 46.4996C21.9852 46.4996 23.9999 44.4849 23.9999 41.9997C23.9999 39.5144 21.9852 37.4998 19.4999 37.4998C17.0147 37.4998 15 39.5144 15 41.9997C15 44.4849 17.0147 46.4996 19.4999 46.4996Z" fill="#BAE005"/>
<path d="M37.499 46.4996C39.9842 46.4996 41.9989 44.4849 41.9989 41.9997C41.9989 39.5144 39.9842 37.4998 37.499 37.4998C35.0137 37.4998 32.999 39.5144 32.999 41.9997C32.999 44.4849 35.0137 46.4996 37.499 46.4996Z" fill="#BAE005"/>
<path d="M47.6513 8.04026C47.3663 7.69827 46.9433 7.50027 46.4993 7.50027H11.2438L9.93884 2.61335C9.76485 1.95636 9.17086 1.50037 8.48987 1.50037H1.49998C0.67199 1.50037 0 2.17236 0 3.00034C0 3.82833 0.67199 4.50032 1.49998 4.50032H7.33789L15.0508 33.3869C15.2248 34.0439 15.8188 34.4999 16.4997 34.4999H40.4994C41.3274 34.4999 41.9993 33.8279 41.9993 32.9999C41.9993 32.1719 41.3274 31.4999 40.4994 31.4999H17.6517L16.8087 28.3439L43.5743 26.997C44.2673 26.961 44.8493 26.454 44.9753 25.77L47.9752 9.27025C48.0562 8.82925 47.9362 8.37926 47.6513 8.04026ZM34.4995 19.5001H25.4996C24.6716 19.5001 23.9996 18.8281 23.9996 18.0001C23.9996 17.1721 24.6716 16.5001 25.4996 16.5001H34.4995C35.3274 16.5001 35.9994 17.1721 35.9994 18.0001C35.9994 18.8281 35.3274 19.5001 34.4995 19.5001Z" fill="white"/>
</g>
<defs>
<clipPath id="clip0_0_202">
<rect width="48" height="48" fill="white"/>
</clipPath>
</defs>
</svg>
