<svg width="24" height="24" viewBox="0 0 24 24" fill="none" xmlns="http://www.w3.org/2000/svg">
<g clip-path="url(#clip0_0_29)">
<path d="M17.953 1.36325C15.7087 1.14166 13.6575 2.02059 12.279 3.52243C12.1298 3.68498 11.8698 3.68498 11.7206 3.52243C10.3422 2.02059 8.29093 1.14166 6.04659 1.36325C2.48995 1.71439 -0.251705 5.11687 -0.00952339 8.6825C0.473136 15.7888 9.52843 21.8875 11.5905 23.1878C11.7158 23.2669 11.8577 23.3061 11.9998 23.3072C12.1419 23.3061 12.2839 23.2669 12.4092 23.1878C14.4711 21.8875 23.5264 15.7889 24.0092 8.6825C24.2513 5.11687 21.5097 1.71439 17.953 1.36325Z" fill="white"/>
</g>
<defs>
<clipPath id="clip0_0_29">
<rect width="24" height="24" fill="white"/>
</clipPath>
</defs>
</svg>
