<svg width="30" height="30" viewBox="0 0 30 30" fill="none" xmlns="http://www.w3.org/2000/svg">
<path d="M28.1434 7.52283C26.4313 7.52283 24.8516 6.95564 23.583 5.9988C22.1282 4.90193 21.0828 3.29294 20.7137 1.43845C20.6223 0.980249 20.5731 0.507397 20.5684 0.0228271H15.6776V13.3869L15.6717 20.707C15.6717 22.664 14.3973 24.3234 12.6307 24.907C12.118 25.0763 11.5643 25.1566 10.9877 25.125C10.2518 25.0845 9.56215 24.8625 8.96273 24.5039C7.68715 23.741 6.8223 22.357 6.79886 20.7738C6.76195 18.2994 8.76234 16.282 11.235 16.282C11.7231 16.282 12.1918 16.3617 12.6307 16.5064V12.8537V11.5406C12.1678 11.472 11.6967 11.4363 11.2203 11.4363C8.5139 11.4363 5.98265 12.5613 4.17328 14.5881C2.8057 16.1197 1.98539 18.0738 1.85883 20.1228C1.69301 22.8146 2.67797 25.3734 4.58812 27.2613C4.86879 27.5385 5.16351 27.7957 5.47172 28.033C7.10941 29.2933 9.11156 29.9765 11.2203 29.9765C11.6967 29.9765 12.1678 29.9414 12.6307 29.8728C14.6006 29.581 16.4182 28.6793 17.8526 27.2613C19.6151 25.5193 20.5889 23.2066 20.5995 20.7451L20.5743 9.81384C21.4151 10.4625 22.3344 10.9992 23.3211 11.4158C24.8557 12.0633 26.4828 12.3914 28.1575 12.3908V8.83943V7.52166C28.1586 7.52283 28.1446 7.52283 28.1434 7.52283Z" fill="white" fill-opacity="0.5"/>
</svg>
