<svg width="48" height="48" viewBox="0 0 48 48" fill="none" xmlns="http://www.w3.org/2000/svg">
<g clip-path="url(#clip0_0_223)">
<path d="M43.6438 0.0300292C43.594 0.026001 43.5519 0 43.4999 0H22C18.692 0 16 2.69202 16 6V7.99988C16 9.104 16.8958 10.0001 17.9999 10.0001C19.104 10.0001 19.9998 9.104 19.9998 7.99988V6C19.9998 4.89807 20.8977 4.00012 22 4.00012H31.3179L30.7078 4.2041C29.088 4.76404 28 6.29004 28 7.99988V37.9999H22C20.8977 37.9999 19.9998 37.1019 19.9998 36V31.9999C19.9998 30.8961 19.104 30 17.9999 30C16.8958 30 16 30.8961 16 31.9999V36C16 39.308 18.692 42 22 42H28V43.9999C28 46.2059 29.7937 48 31.9998 48C32.4279 48 32.834 47.9381 33.2738 47.8019L45.2899 43.7959C46.9119 43.236 47.9999 41.71 47.9999 40.0001V4.00012C47.9999 1.66809 45.9897 -0.160034 43.6438 0.0300292Z" fill="white"/>
<path d="M21.4138 18.5859L13.4139 10.5861C12.8419 10.014 11.9821 9.84193 11.2339 10.1521C10.4879 10.4619 10.0001 11.1921 10.0001 12V18H1.99988C0.896118 18 0 18.8961 0 19.9999C0 21.104 0.896118 22.0001 1.99988 22.0001H10.0001V28.0001C10.0001 28.808 10.4879 29.5378 11.2339 29.848C11.9821 30.1578 12.8419 29.9861 13.4139 29.4141L21.4138 21.4138C22.196 20.632 22.196 19.3682 21.4138 18.5859Z" fill="#BAE005"/>
</g>
<defs>
<clipPath id="clip0_0_223">
<rect width="48" height="48" fill="white"/>
</clipPath>
</defs>
</svg>
