<svg width="48" height="48" viewBox="0 0 48 48" fill="none" xmlns="http://www.w3.org/2000/svg">
<g clip-path="url(#clip0_0_218)">
<path d="M23.7337 17.1095C23.4816 17.1095 23.2331 17.1207 22.9875 17.1432L16.2656 47.297C23.5491 41.5426 31.8281 33.4079 31.8281 25.2048C31.8281 20.7339 28.2047 17.1095 23.7337 17.1095Z" fill="white"/>
<path d="M22.9875 17.1435C26.3672 17.5147 29.0156 20.9826 29.0156 25.2051C29.0156 33.4082 22.2328 41.5429 16.2656 47.2972C8.98219 41.5429 0.703125 33.4082 0.703125 25.2051C0.703125 20.7341 4.32656 17.1097 8.7975 17.1097C12.1594 17.1097 15.0422 19.1601 16.2656 22.0776C17.3972 19.3785 19.9491 17.4218 22.9875 17.1435Z" fill="white"/>
<path d="M41.6166 0.703247C41.3531 0.703247 41.0944 0.72106 40.8403 0.755747L36.375 21.8907C41.4862 17.852 47.2969 12.1426 47.2969 6.3845C47.2969 3.24668 44.7534 0.703247 41.6166 0.703247Z" fill="#BAE005"/>
<path d="M40.8403 0.755747C42.8991 1.13262 44.4844 3.50918 44.4844 6.3845C44.4844 12.1426 40.17 17.852 36.375 21.8907C31.2638 17.852 25.4531 12.1426 25.4531 6.3845C25.4531 3.24668 27.9966 0.703247 31.1334 0.703247C33.4931 0.703247 35.5162 2.14231 36.375 4.18981C37.1381 2.37106 38.82 1.03231 40.8403 0.755747Z" fill="#BAE005"/>
</g>
<defs>
<clipPath id="clip0_0_218">
<rect width="48" height="48" fill="white"/>
</clipPath>
</defs>
</svg>
