<svg width="166" height="73" viewBox="0 0 166 73" fill="none" xmlns="http://www.w3.org/2000/svg">
<path d="M27.5859 47H20.2266C20.0859 46.7656 19.875 46.2344 19.5938 45.4062C18.3125 40.4688 17.1094 37.2891 15.9844 35.8672C14.8594 34.4453 13.25 33.7344 11.1562 33.7344C10.5625 33.7344 10.0859 33.7656 9.72656 33.8281C9.72656 38.3438 9.8125 42.7344 9.98438 47H3.375C3.57812 42.2812 3.67969 36.9609 3.67969 31.0391C3.67969 25.3516 3.57812 20.5 3.375 16.4844H9.98438C9.8125 21.1094 9.72656 25.3203 9.72656 29.1172C10.3672 29.1484 10.8438 29.1641 11.1562 29.1641C15.4375 29.1641 18.25 25.4219 19.5938 17.9375C19.6875 17.3906 19.875 16.9062 20.1562 16.4844H26.4844C26.2812 16.9688 25.9688 17.8203 25.5469 19.0391C24.5156 22.6953 23.4062 25.3594 22.2188 27.0312C21.0469 28.7031 19.4609 29.9609 17.4609 30.8047V31.0625C19.5391 31.7344 21.1328 32.8516 22.2422 34.4141C23.3672 35.9766 24.8047 39.3125 26.5547 44.4219C26.7734 45.0781 27.1172 45.9375 27.5859 47ZM53.8359 35.3516C53.8359 39.2891 52.625 42.3672 50.2031 44.5859C47.7812 46.8047 44.9297 47.9141 41.6484 47.9141C38.5234 47.9141 35.8438 46.9062 33.6094 44.8906C31.375 42.8594 30.2578 40.0078 30.2578 36.3359C30.2578 32.3828 31.4766 29.2891 33.9141 27.0547C36.3516 24.8203 39.2109 23.7031 42.4922 23.7031C45.6016 23.7031 48.2656 24.7266 50.4844 26.7734C52.7188 28.8047 53.8359 31.6641 53.8359 35.3516ZM47.7188 36.0547C47.7188 33.7891 47.1875 31.8906 46.125 30.3594C45.0625 28.8125 43.6797 28.0391 41.9766 28.0391C40.3203 28.0391 38.9688 28.7578 37.9219 30.1953C36.8906 31.6328 36.375 33.4297 36.375 35.5859C36.375 37.8516 36.9062 39.7578 37.9688 41.3047C39.0312 42.8359 40.4141 43.6016 42.1172 43.6016C43.7734 43.6016 45.1172 42.8828 46.1484 41.4453C47.1953 40.0078 47.7188 38.2109 47.7188 36.0547ZM85.9453 47H79.875C79.875 44.5469 79.8516 41.2266 79.8047 37.0391C79.7734 32.8516 79.7578 30.25 79.7578 29.2344H79.3359C79.0234 30.3594 77.9922 33.2031 76.2422 37.7656C74.4922 42.3281 73.6172 45.4062 73.6172 47H68.2969C68.2969 45.2188 67.6562 42.4766 66.375 38.7734C65.0938 35.0547 64.0938 31.875 63.375 29.2344H62.9766C62.9766 30.2812 62.8906 33.125 62.7188 37.7656C62.5469 42.3906 62.4609 45.4688 62.4609 47H57.1172C57.1172 46.5469 57.4062 43.2266 57.9844 37.0391C58.5625 30.8359 58.8516 26.7344 58.8516 24.7344H67.4531C67.4531 26.5312 68.1484 29.6094 69.5391 33.9688C70.9297 38.3281 71.625 40.9453 71.625 41.8203H71.8594C71.8594 40.9297 72.5938 38.3047 74.0625 33.9453C75.5469 29.5859 76.2891 26.5156 76.2891 24.7344H85.0078C85.0078 26.7344 85.1641 30.7812 85.4766 36.875C85.7891 42.9531 85.9453 46.3281 85.9453 47ZM110.438 47H104.203C104.406 43.7656 104.508 40.0547 104.508 35.8672C104.508 33.6641 104.492 31.3516 104.461 28.9297H96.4688C96.4375 30.9297 96.4219 33.2422 96.4219 35.8672C96.4219 39.8828 96.5234 43.5938 96.7266 47H90.4922C90.7109 43.7656 90.8203 40.0547 90.8203 35.8672C90.8203 31.7109 90.5469 28.0703 90 24.9453L96.5391 24.7344H105.867L110.414 24.2656C110.227 27.2969 110.133 31.1641 110.133 35.8672C110.133 39.8828 110.234 43.5938 110.438 47ZM164.391 42.0781L163.992 46.5547C162.57 47.3047 160.641 47.6797 158.203 47.6797C154.172 47.6797 151.07 46.5547 148.898 44.3047C146.742 42.0547 145.664 39.3516 145.664 36.1953C145.664 32.9141 146.797 30.0547 149.062 27.6172C151.328 25.1641 154.43 23.9375 158.367 23.9375C160.289 23.9375 162 24.1562 163.5 24.5938L162.703 29.375C161.266 28.7812 159.656 28.4844 157.875 28.4844C155.984 28.4844 154.492 29.1562 153.398 30.5C152.305 31.8281 151.758 33.4688 151.758 35.4219C151.758 37.5469 152.406 39.3438 153.703 40.8125C155 42.2812 156.836 43.0156 159.211 43.0156C160.602 43.0156 162.328 42.7031 164.391 42.0781Z" fill="white"/>
<path d="M137.559 2.19996L136.128 35.9807L121.908 32.1703L137.559 2.19996Z" fill="white"/>
<path d="M119.442 69.8147L135.093 39.8444L120.872 36.0339L119.442 69.8147Z" fill="#BAE005"/>
</svg>
